<?xml version="1.0" encoding="UTF-8" standalone="no"?>
<svg
   xmlns:dc="http://purl.org/dc/elements/1.1/"
   xmlns:cc="http://creativecommons.org/ns#"
   xmlns:rdf="http://www.w3.org/1999/02/22-rdf-syntax-ns#"
   xmlns:svg="http://www.w3.org/2000/svg"
   xmlns="http://www.w3.org/2000/svg"
   xmlns:sodipodi="http://sodipodi.sourceforge.net/DTD/sodipodi-0.dtd"
   xmlns:inkscape="http://www.inkscape.org/namespaces/inkscape"
   version="1.1"
   id="svg3404"
   xml:space="preserve"
   width="247.00064"
   height="106.56328"
   viewBox="0 0 247.00064 106.56328"
   sodipodi:docname="bfp.svg"
   inkscape:version="1.0.2 (e86c8708, 2021-01-15)"><metadata
     id="metadata3410"><rdf:RDF><cc:Work
         rdf:about=""><dc:format>image/svg+xml</dc:format><dc:type
           rdf:resource="http://purl.org/dc/dcmitype/StillImage" /><dc:title></dc:title></cc:Work></rdf:RDF></metadata><defs
     id="defs3408"><clipPath
       clipPathUnits="userSpaceOnUse"
       id="clipPath3512"><path
         d="M 0,0 H 314.438 V 88.8027 H 0 Z"
         id="path3510" /></clipPath><linearGradient
       x1="0"
       y1="0"
       x2="1"
       y2="0"
       gradientUnits="userSpaceOnUse"
       gradientTransform="matrix(-166.475,0,0,-211.16,215.756,43.5541)"
       spreadMethod="pad"
       id="linearGradient3522"><stop
         style="stop-opacity:1;stop-color:#ffffff"
         offset="0"
         id="stop3518" /><stop
         style="stop-opacity:0;stop-color:#ffffff"
         offset="1"
         id="stop3520" /></linearGradient><mask
       maskUnits="userSpaceOnUse"
       x="0"
       y="0"
       width="1"
       height="1"
       id="mask3524"><g
         id="g3532"><g
           id="g3530"><g
             id="g3528"><path
               d="m 123.453,4.8123 h 13.143 v 70.4178 h -13.143 z"
               style="fill:url(#linearGradient3522);stroke:none"
               id="path3526" /></g></g></g></mask></defs><sodipodi:namedview
     pagecolor="#ffffff"
     bordercolor="#666666"
     borderopacity="1"
     objecttolerance="10"
     gridtolerance="10"
     guidetolerance="10"
     inkscape:pageopacity="0"
     inkscape:pageshadow="2"
     inkscape:window-width="1383"
     inkscape:window-height="847"
     id="namedview3406"
     showgrid="false"
     inkscape:zoom="3.2348095"
     inkscape:cx="123.50032"
     inkscape:cy="53.281639"
     inkscape:window-x="57"
     inkscape:window-y="25"
     inkscape:window-maximized="1"
     inkscape:current-layer="g3412"
     fit-margin-top="0"
     fit-margin-left="0"
     fit-margin-right="0"
     fit-margin-bottom="0" /><g
     id="g3412"
     inkscape:groupmode="layer"
     inkscape:label="Durst_S_2021_Excitonic_Coupling_to_Surface_Lattice_Resonances-_Experiment_and_Simulation"
     transform="matrix(1.3333333,0,0,-1.3333333,-231.22537,344.92327)"><g
       id="g3508"
       transform="matrix(0.9,0,0,0.9,171.685,178.77)" /><path
       d="m 187.41538,216.80418 1.5489,-0.004 -0.0287,-0.13941 -0.0317,-0.15624 -0.0329,-0.16479 -0.0174,-0.0929 -0.0177,-0.093 -0.0177,-0.0971 -0.0177,-0.10143 -0.0182,-0.10557 -0.0185,-0.10557 -0.0182,-0.10989 -0.0186,-0.11403 -0.0185,-0.11826 -0.0364,-0.24498 -0.0182,-0.12672 -0.0177,-0.12672 -0.0177,-0.13095 -0.0173,-0.13518 -0.0165,-0.13518 -0.0165,-0.13932 -0.0161,-0.14364 -0.0156,-0.14364 -0.0148,-0.14364 -0.0143,-0.15201 -0.0135,-0.14787 -0.0131,-0.15201 -0.0118,-0.15633 -0.0114,-0.1521 -0.0105,-0.16047 -0.009,-0.16047 -0.009,-0.16056 -0.008,-0.16047 -0.006,-0.16479 -0.005,-0.1647 -0.004,-0.16893 -0.002,-0.0803 -0.003,-0.16893 -8.1e-4,-0.0845 -4.5e-4,-0.0845 v -0.17316 l 0.002,-0.16893 0.001,-0.0845 0.002,-0.0887 0.002,-0.0844 0.002,-0.0887 0.003,-0.0844 0.003,-0.0887 0.003,-0.0845 0.004,-0.0887 0.005,-0.0887 0.005,-0.0845 0.005,-0.0887 0.005,-0.0887 0.006,-0.0844 0.006,-0.0887 0.007,-0.0887 0.007,-0.0887 0.008,-0.0845 0.0169,-0.17739 0.009,-0.0887 0.01,-0.0887 0.0102,-0.0887 0.0102,-0.0844 0.011,-0.0887 0.0113,-0.0887 0.0119,-0.0887 0.0127,-0.0845 0.0126,-0.0887 0.0136,-0.0887 0.0139,-0.0845 0.0144,-0.0887 0.0152,-0.0887 0.0152,-0.0844 0.016,-0.0887 0.0169,-0.0845 0.0169,-0.0887 0.0177,-0.0845 0.0182,-0.0887 0.019,-0.0844 0.019,-0.0887 0.0199,-0.0844 0.0207,-0.0845 0.0211,-0.0845 0.0216,-0.0844 0.0223,-0.0845 0.0229,-0.0845 0.0232,-0.0887 0.024,-0.0803 0.0246,-0.0845 0.0253,-0.0844 0.0258,-0.0845 0.0265,-0.0803 0.0271,-0.0844 0.0274,-0.0803 0.0283,-0.0803 0.0292,-0.0845 0.0296,-0.0802 0.0303,-0.0803 0.0309,-0.0803 0.0317,-0.0802 0.0321,-0.0803 0.0329,-0.0803 0.0334,-0.0761 0.0342,-0.0802 0.035,-0.0761 0.0356,-0.0803 0.0363,-0.0761 0.0367,-0.076 0.0376,-0.076 0.0384,-0.0761 0.0389,-0.0761 0.0397,-0.0761 0.0406,-0.0718 0.041,-0.0717 0.0422,-0.0761 0.0423,-0.0718 0.0435,-0.0718 0.0439,-0.0718 0.0448,-0.0718 0.0456,-0.0717 0.0464,-0.0676 0.0469,-0.0718 0.0477,-0.0676 0.0486,-0.0676 0.0494,-0.0676 0.0499,-0.0676 0.0511,-0.0676 0.0515,-0.0676 0.0524,-0.0634 0.0533,-0.0634 0.054,-0.0676 0.0549,-0.0634 0.0558,-0.0634 0.0566,-0.0591 0.057,-0.0634 0.0583,-0.0591 0.0591,-0.0634 0.0596,-0.0591 0.0608,-0.0591 0.0617,-0.0591 0.0625,-0.0549 0.0634,-0.0591 0.0642,-0.0549 0.0651,-0.0549 0.0659,-0.055 0.0671,-0.0549 0.0688,-0.0549 0.0334,-0.0253 0.0346,-0.0296 0.0346,-0.0254 0.035,-0.0253 0.10647,-0.0761 0.0726,-0.0507 0.0359,-0.0254 0.0367,-0.0253 0.0376,-0.0254 0.0367,-0.0211 0.0376,-0.0253 0.038,-0.0254 0.0376,-0.0253 0.0384,-0.0212 0.0389,-0.0254 0.0384,-0.0211 0.0389,-0.0254 0.0392,-0.0212 0.0397,-0.0211 0.0398,-0.0254 0.0802,-0.0422 0.041,-0.0254 0.0819,-0.0422 0.0414,-0.0212 0.0836,-0.0422 0.0423,-0.0212 0.0427,-0.0211 0.043,-0.0169 0.0427,-0.0212 0.0436,-0.0211 0.0435,-0.0169 0.0444,-0.0212 0.0439,-0.0212 0.0444,-0.0168 0.0447,-0.0212 0.0456,-0.0169 0.0452,-0.0211 0.0456,-0.0169 0.0921,-0.0337 0.0465,-0.0169 0.0473,-0.0169 0.0469,-0.0212 0.0473,-0.0168 0.0481,-0.0127 0.0482,-0.0169 0.0477,-0.0169 0.098,-0.0337 0.0494,-0.0127 0.0494,-0.0169 0.0503,-0.0168 0.0499,-0.0127 0.0507,-0.0127 0.0511,-0.0169 0.0507,-0.0126 0.0519,-0.0127 0.0516,-0.0169 0.10476,-0.0254 0.0528,-0.0126 0.10638,-0.0254 0.0536,-0.0127 0.0541,-0.0127 0.0571,-0.008 -0.31644,-1.48689 -0.0607,0.0127 -0.0626,0.0127 -0.0625,0.0169 -0.0621,0.0126 -0.0612,0.0127 -0.0617,0.0169 -0.0613,0.0169 -0.0608,0.0126 -0.0604,0.0169 -0.0599,0.0169 -0.0604,0.0169 -0.0592,0.0168 -0.0595,0.0169 -0.0591,0.0169 -0.0588,0.0169 -0.0582,0.0168 -0.0583,0.0212 -0.0579,0.0169 -0.0571,0.0211 -0.0579,0.0169 -0.057,0.0212 -0.0562,0.0168 -0.0566,0.0212 -0.0563,0.0211 -0.0557,0.0211 -0.1107,0.0423 -0.0545,0.0211 -0.0549,0.0211 -0.0545,0.0212 -0.0536,0.0253 -0.10728,0.0423 -0.0532,0.0253 -0.0528,0.0212 -0.10476,0.0507 -0.0519,0.0212 -0.0519,0.0253 -0.10224,0.0508 -0.0507,0.0253 -0.0503,0.0254 -0.0507,0.0253 -0.0997,0.0508 -0.049,0.0295 -0.049,0.0254 -0.049,0.0295 -0.0482,0.0254 -0.0486,0.0295 -0.0477,0.0254 -0.0477,0.0295 -0.0473,0.0296 -0.0469,0.0254 -0.0469,0.0295 -0.0464,0.0296 -0.0921,0.0591 -0.0456,0.0295 -0.0452,0.0296 -0.0448,0.0337 -0.0452,0.0296 -0.0444,0.0295 -0.0439,0.0296 -0.0439,0.0337 -0.0439,0.0296 -0.0431,0.0337 -0.043,0.0296 -0.0428,0.0337 -0.0422,0.0338 -0.0431,0.0337 -0.0827,0.0634 -0.082,0.0676 -0.0815,0.0676 -0.0798,0.0676 -0.0789,0.0718 -0.0782,0.0676 -0.0764,0.0718 -0.0756,0.0717 -0.0748,0.0718 -0.0731,0.0761 -0.0722,0.0718 -0.0715,0.0761 -0.0701,0.076 -0.0692,0.076 -0.0676,0.0761 -0.0672,0.076 -0.0659,0.0803 -0.0646,0.076 -0.0637,0.0803 -0.063,0.0803 -0.0612,0.0803 -0.0608,0.0844 -0.0596,0.0803 -0.0583,0.0803 -0.0579,0.0844 -0.0562,0.0845 -0.0557,0.0845 -0.0545,0.0844 -0.0536,0.0845 -0.0524,0.0845 -0.0519,0.0887 -0.0507,0.0845 -0.0494,0.0887 -0.049,0.0844 -0.0477,0.0887 -0.0469,0.0887 -0.0461,0.0887 -0.0452,0.0887 -0.0439,0.0887 -0.0435,0.0887 -0.0423,0.0929 -0.0418,0.0887 -0.0406,0.0929 -0.0397,0.0887 -0.0389,0.0929 -0.038,0.093 -0.0376,0.0929 -0.0363,0.0887 -0.0356,0.093 -0.035,0.0929 -0.0338,0.093 -0.0333,0.0929 -0.0321,0.0972 -0.0317,0.0929 -0.0309,0.093 -0.0304,0.0929 -0.0292,0.0972 -0.0287,0.0929 -0.0278,0.0972 -0.0271,0.0929 -0.0266,0.0972 -0.0254,0.0929 -0.0254,0.0972 -0.024,0.0929 -0.0237,0.0972 -0.0228,0.0971 -0.0224,0.093 -0.0216,0.0971 -0.0211,0.0971 -0.0203,0.093 -0.0194,0.0971 -0.0191,0.0972 -0.0185,0.0971 -0.0177,0.0972 -0.0169,0.0929 -0.0165,0.0972 -0.016,0.0971 -0.0152,0.0972 -0.0148,0.0929 -0.0143,0.0972 -0.0135,0.0971 -0.0131,0.0972 -0.0127,0.0929 -0.0118,0.0972 -0.0114,0.0971 -0.011,0.0971 -0.0105,0.093 -0.01,0.0971 -0.009,0.0972 -0.009,0.0929 -0.008,0.0972 -0.008,0.0929 -0.008,0.0972 -0.007,0.0929 -0.006,0.0972 -0.006,0.0929 -0.005,0.0972 -0.005,0.0929 -0.005,0.093 -0.004,0.0929 -0.004,0.093 -0.003,0.0971 -0.003,0.093 -0.003,0.0929 -0.002,0.093 -0.002,0.0929 -0.002,0.0887 -8.1e-4,0.093 -4.5e-4,0.0929 -3.6e-4,0.0887 v 0.0929 l 8.1e-4,0.0887 4.5e-4,0.0929 0.001,0.0887 0.003,0.17739 0.005,0.17739 0.005,0.17739 0.007,0.17325 0.008,0.17316 0.009,0.17316 0.0102,0.16893 0.011,0.16479 0.0118,0.1647 0.0131,0.16479 0.0135,0.16047 0.0144,0.16056 0.0152,0.15624 0.0156,0.15633 0.0165,0.15201 0.0169,0.14787 0.0173,0.14778 0.0177,0.14364 0.0182,0.14364 0.0186,0.13518 0.0185,0.13941 0.0191,0.13086 0.0194,0.13095 0.0194,0.12672 0.0389,0.24498 0.0583,0.34218 0.019,0.10557 0.019,0.10143 0.0186,0.10134 0.0181,0.0972 z"
       style="fill:#ee2b21;fill-opacity:1;fill-rule:evenodd;stroke:none;stroke-width:0.9"
       id="path3534" /><path
       d="m 332.3728,233.49153 -4.6251,2.50848 v -5.01687 z"
       style="fill:#f57914;fill-opacity:1;fill-rule:evenodd;stroke:none;stroke-width:0.9"
       id="path3536" /><path
       d="m 332.3728,233.49153 -4.6251,-2.50839 v 5.01687 z m -3.5622,-0.72297 1.3329,0.72297 -1.3329,0.72297 z"
       style="fill:#f57914;fill-opacity:1;fill-rule:evenodd;stroke:none;stroke-width:0.9"
       id="path3538" /><path
       d="m 272.8063,228.76968 -5.1327,1.15596 1.3644,-4.82778 z"
       style="fill:#f57914;fill-opacity:1;fill-rule:evenodd;stroke:none;stroke-width:0.9"
       id="path3540" /><path
       d="m 272.8063,228.76968 -3.7683,-3.67182 -1.3644,4.82778 z m -3.231,-1.66455 1.0854,1.05822 -1.4787,0.33318 z"
       style="fill:#f57914;fill-opacity:1;fill-rule:evenodd;stroke:none;stroke-width:0.9"
       id="path3542" /><path
       d="m 201.91447,203.97765 -5.22963,0.57942 1.89153,-4.64661 z"
       style="fill:#ee2b21;fill-opacity:1;fill-rule:evenodd;stroke:none;stroke-width:0.9"
       id="path3544" /><path
       d="m 201.91447,203.97765 -3.3381,-4.06719 -1.89153,4.64661 z m -3.02679,-2.01267 0.96183,1.17207 -1.50705,0.16713 z"
       style="fill:#ee2b21;fill-opacity:1;fill-rule:evenodd;stroke:none;stroke-width:0.9"
       id="path3546" /><path
       d="m 276.9049,236.25651 -5.2299,0.57942 1.8918,-4.64661 z"
       style="fill:#ee2b21;fill-opacity:1;fill-rule:evenodd;stroke:none;stroke-width:0.9"
       id="path3548" /><path
       d="m 338.086,241.93947 -4.6251,2.50848 v -5.01687 z"
       style="fill:#ee2b21;fill-opacity:1;fill-rule:evenodd;stroke:none;stroke-width:0.9"
       id="path3550" /><path
       d="m 338.086,241.93947 -4.6251,-2.50839 v 5.01687 z m -3.5622,-0.72297 1.3329,0.72297 -1.3329,0.72297 z"
       style="fill:#ee2b21;fill-opacity:1;fill-rule:evenodd;stroke:none;stroke-width:0.9"
       id="path3552" /><g
       transform="matrix(0.9,0,0,0.9,333.7264,250.60872)"
       id="g3558"><text
         transform="scale(1,-1)"
         style="font-variant:normal;font-weight:normal;font-size:13px;font-family:'Palatino Linotype';-inkscape-font-specification:PalatinoLinotype-Roman;writing-mode:lr-tb;fill:#13100f;fill-opacity:1;fill-rule:nonzero;stroke:none"
         id="text3556"><tspan
           x="0 7.9404001 15.171"
           y="0"
           sodipodi:role="line"
           id="tspan3554">BFP</tspan></text></g><g
       transform="matrix(0.9,0,0,0.9,279.7111,250.60872)"
       id="g3564"><text
         transform="scale(1,-1)"
         style="font-variant:normal;font-weight:normal;font-size:13px;font-family:'Palatino Linotype';-inkscape-font-specification:PalatinoLinotype-Roman;writing-mode:lr-tb;fill:#13100f;fill-opacity:1;fill-rule:nonzero;stroke:none"
         id="text3562"><tspan
           x="0 7.9404001 14.1687 21.736"
           y="0"
           sodipodi:role="line"
           id="tspan3560">Lens</tspan></text></g><g
       transform="matrix(0.9,0,0,0.9,258.38272,185.74764)"
       id="g3570"><text
         transform="scale(1,-1)"
         style="font-variant:normal;font-weight:normal;font-size:14.0799px;font-family:'Palatino Linotype';-inkscape-font-specification:PalatinoLinotype-Roman;writing-mode:lr-tb;fill:#13100f;fill-opacity:1;fill-rule:nonzero;stroke:none"
         id="text3568"><tspan
           x="0"
           y="0"
           id="tspan3566">f</tspan></text></g><g
       transform="matrix(0.9,0,0,0.9,313.3882,185.74764)"
       id="g3576"><text
         transform="scale(1,-1)"
         style="font-variant:normal;font-weight:normal;font-size:14.0799px;font-family:'Palatino Linotype';-inkscape-font-specification:PalatinoLinotype-Roman;writing-mode:lr-tb;fill:#13100f;fill-opacity:1;fill-rule:nonzero;stroke:none"
         id="text3574"><tspan
           x="0"
           y="0"
           id="tspan3572">f</tspan></text></g><g
       transform="matrix(0.9,0,0,0.9,351.424,223.61556)"
       id="g3582"><text
         transform="scale(1,-1)"
         style="font-variant:normal;font-weight:normal;font-size:14.0799px;font-family:'Palatino Linotype';-inkscape-font-specification:PalatinoLinotype-Roman;writing-mode:lr-tb;fill:#262b6c;fill-opacity:1;fill-rule:nonzero;stroke:none"
         id="text3580"><tspan
           x="0"
           y="0"
           id="tspan3578">h</tspan></text></g><g
       transform="matrix(0.9,0,0,0.9,176.19052,202.45746)"
       id="g3588"><text
         transform="scale(1,-1)"
         style="font-variant:normal;font-weight:bold;font-size:14.0799px;font-family:'Palatino Linotype';-inkscape-font-specification:PalatinoLinotype-Bold;writing-mode:lr-tb;fill:#ee2b21;fill-opacity:1;fill-rule:nonzero;stroke:none"
         id="text3586"><tspan
           x="0"
           y="0"
           id="tspan3584">θ</tspan></text></g><path
       d="M 232.65532,246.49311 V 184.00854"
       style="fill:none;stroke:#13100f;stroke-width:1.8;stroke-linecap:butt;stroke-linejoin:miter;stroke-miterlimit:10;stroke-dasharray:3.60504, 3.60504, 0, 0;stroke-dashoffset:0;stroke-opacity:1"
       id="path3636" /><path
       d="M 343.5337,217.41078 H 173.41903"
       style="fill:none;stroke:#6b6b6c;stroke-width:1.92375;stroke-linecap:butt;stroke-linejoin:miter;stroke-miterlimit:10;stroke-dasharray:3.8475, 5.77125, 0, 0;stroke-dashoffset:0;stroke-opacity:1"
       id="path3638" /><path
       d="m 289.9648,181.38747 -2.682,-2.61747 v 1.70226 H 235.26919 V 178.77 l -2.68245,2.61747 2.68245,2.62107 v -1.70226 h 52.01361 v 1.70226 z"
       style="fill:#13100f;fill-opacity:1;fill-rule:evenodd;stroke:none;stroke-width:0.9"
       id="path3640" /><path
       d="M 343.4302,181.38747 340.8337,178.77 v 1.70226 H 292.5613 V 178.77 l -2.5965,2.61747 2.5965,2.62107 v -1.70226 h 48.2724 v 1.70226 z"
       style="fill:#13100f;fill-opacity:1;fill-rule:evenodd;stroke:none;stroke-width:0.9"
       id="path3642" /><path
       d="m 325.8361,225.44805 -4.6251,2.50848 v -5.01687 z"
       style="fill:#fabb09;fill-opacity:1;fill-rule:evenodd;stroke:none;stroke-width:0.9"
       id="path3644" /><path
       d="m 325.8361,225.44805 -4.6251,-2.50839 v 5.01687 z m -3.5622,-0.72297 1.3329,0.72297 -1.3329,0.72297 z"
       style="fill:#fabb09;fill-opacity:1;fill-rule:evenodd;stroke:none;stroke-width:0.9"
       id="path3646" /><path
       d="m 269.1118,222.55365 -4.9275,1.84428 0.6939,-4.96863 z"
       style="fill:#fabb09;fill-opacity:1;fill-rule:evenodd;stroke:none;stroke-width:0.9"
       id="path3648" /><path
       d="m 269.1118,222.55365 -4.2336,-3.12435 -0.6939,4.96863 z m -3.4272,-1.20888 1.2195,0.90036 -1.4202,0.53163 z"
       style="fill:#fabb09;fill-opacity:1;fill-rule:evenodd;stroke:none;stroke-width:0.9"
       id="path3650" /><path
       d="m 343.5337,224.64723 h -53.766 l -56.64906,-7.89462 -0.31806,1.48266 56.80602,7.93251 h 53.9271 z"
       style="fill:#fabb09;fill-opacity:1;fill-rule:evenodd;stroke:#fabb0b;stroke-width:0.45;stroke-linecap:butt;stroke-linejoin:miter;stroke-miterlimit:10;stroke-dasharray:none;stroke-opacity:1"
       id="path3652" /><path
       d="m 343.999,232.67271 -54.0702,-0.25344 -56.81016,-15.71652 -0.31806,1.48266 56.96712,15.7545 54.2313,0.25344 z"
       style="fill:#f57914;fill-opacity:1;fill-rule:evenodd;stroke:#f57715;stroke-width:0.45;stroke-linecap:butt;stroke-linejoin:miter;stroke-miterlimit:10;stroke-dasharray:none;stroke-opacity:1"
       id="path3654" /><path
       d="m 355.6522,241.08987 -65.7252,0.16677 -104.49009,-45.17523 -0.60228,1.39392 104.77827,45.30195 66.0393,-0.16677 z"
       style="fill:#ee2b21;fill-opacity:1;fill-rule:evenodd;stroke:#ee2c21;stroke-width:0.45;stroke-linecap:butt;stroke-linejoin:miter;stroke-miterlimit:10;stroke-dasharray:none;stroke-opacity:1"
       id="path3656" /><path
       d="m 350.1208,237.70092 h -0.9414 l -0.0144,-16.66755 h 0.9414 l -1.7973,-3.58794 -1.9116,3.58794 h 0.9873 l 0.0144,16.66755 h -0.9873 l 1.8972,3.51594 z"
       style="fill:#262b6c;fill-opacity:1;fill-rule:evenodd;stroke:none;stroke-width:0.9"
       id="path3658" /><path
       d="M 343.5337,246.49311 V 184.00854"
       style="fill:none;stroke:#13100f;stroke-width:1.8;stroke-linecap:butt;stroke-linejoin:miter;stroke-miterlimit:10;stroke-dasharray:3.60504, 3.60504, 0, 0;stroke-dashoffset:0;stroke-opacity:1"
       id="path3680" /><g
       id="g3682"
       transform="matrix(0.9,0,0,0.9,171.685,178.77)" /><g
       mask="url(#mask3524)"
       id="g3686"
       transform="matrix(0.9,0,0,0.9,171.685,178.77)"><path
         d="m 132.696,75.2281 c 1.717,-0.0175 3.51,0.002 3.51,0.002 l 0.39,-70.3799 c 0,0 -2.35,-0.0379 -3.9,-0.0088 -9.243,11.8224 -9.216,58.6138 0,70.3867 z"
         style="fill:#5dace3;fill-opacity:1;fill-rule:evenodd;stroke:none"
         id="path3684" /></g></g></svg>
